<svg width="1034" height="1034" viewBox="-10 -5 1034 1034">
    <path fill="black"
          d="M278 256q-95 0-127.5 28T118 397v92q0 57-20 79t-74 22H0v55h24q53 0 73.5 22t20.5 80v92q0 84 32.5 112.5T278 980h25v-55h-27q-54 0-70-16.5T190 837v-95q0-59-17.5-86.5T113 618q42-10 59.5-37t17.5-87v-95q0-55 16-71.5t70-16.5h27v-55h-25zm419 0v55h27q53 0 69.5 16.5T810 399v95q0 60 17 87t60 37q-42 10-59.5 37T810 742v95q0 55-16.5 71.5T724 925h-27v55h24q95 0 127-28.5T880 839l1-92q-1-58 20-80t75-22h24v-55h-24q-54 0-75-22t-20-79v-92q-1-85-33-113t-127-28h-24zm-80 85q-27 0-51 14t-37 39q-16 31-11 64l-1-2v5q-1 6-5 13-5 10-16 21-13 13-35 26-38 24-68 24-14 0-21-5l2 3-6-3q-37-20-77-7.5T231 582t-7.5 77 49.5 60q27 14 57.5 11t53.5-22l-1 2 5-3q6-2 15-2 12 0 27 4 18 5 41 17 33 18 48 39 10 13 11 26-1 28 13.5 53.5T584 884q37 19 77 7t60-49 7.5-77.5T679 705q-5-3-10-5h2l-3-3q-5-4-8-11-6-11-9-25-4-19-4.5-44t2.5-44q3-15 8-26 3-7 8-12l3-3h-3q28-14 43-43 20-37 7.5-77T666 352q-23-12-49-11zm2 16q27 0 46 17-10-9-31-7t-41 15q6 6 6 14.5t-5.5 15T579 418q-3 0-6-1h-1q-9-3-15 6-10 19-11 37t8 29q-19-21-18-51t22-53q13-14 29-21t32-7zm-69 167q7 0 11 2l10 6q9 4 19 7 21 20 23 81 0 36-8 59-6 15-15 23-14 6-25 16-10 3-25 1-24-4-56-21-34-19-51-38-10-12-11-22 1-13-2-26l1 1v-5q1-5 5-12 6-9 17-19 13-13 34-26 42-26 70-27h3zm-227 24q27 0 46 17h-1q-10-9-30.5-7T297 573q5 6 5.5 14t-5.5 14.5-15 7.5q-2 0-5-1h-2q-8-3-15 6-9 18-10 36.5t8 28.5q-20-20-19-50t23-53q12-14 28-21t33-7zm314 161q27 0 46 17h-1q-10-9-30.5-6.5T611 735q5 5 5.5 13.5t-5.5 15-15 6.5h-5l-2-1q-8-2-15 6-10 19-10.5 37t8.5 29q-20-21-19-50.5t23-53.5q12-13 28-20.5t33-7.5z"/>
</svg>