<svg xmlns="http://www.w3.org/2000/svg" xmlns:xlink="http://www.w3.org/1999/xlink" viewBox="0 0 128 128">
    <defs>
        <clipPath id="b">
            <path d="M0 0h128v128H0z"/>
        </clipPath>
        <filter id="a" width="100%" height="100%" x="0%" y="0%" filterUnits="objectBoundingBox">
            <feColorMatrix in="SourceGraphic" values="0 0 0 0 1 0 0 0 0 1 0 0 0 0 1 0 0 0 1 0"/>
        </filter>
        <mask id="d">
            <g filter="url(#a)">
                <path d="M0 0h128v128H0z" style="fill:#000;fill-opacity:.85098;stroke:none"/>
            </g>
        </mask>
        <g id="c" clip-path="url(#b)">
            <path d="M3.625 64h120.75v42.668c0 10.023-7.684 17.707-17.707 17.707H21.332c-10.023 0-17.707-7.684-17.707-17.707Zm0 0"
                  style="stroke:none;fill-rule:nonzero;fill:#000;fill-opacity:1"/>
        </g>
    </defs>
    <path d="M3.625 64h120.75v42.668c0 10.023-7.684 17.707-17.707 17.707H21.332c-10.023 0-17.707-7.684-17.707-17.707Zm0 0"
          style="stroke:none;fill-rule:nonzero;fill:#000;fill-opacity:1"/>
    <path d="M-84.146-15.848c-8.753-8.761-22.952-8.761-31.705 0-8.752 8.753-8.752 22.943 0 31.696 8.753 8.761 22.952 8.761 31.705 0H84.146c8.753 8.761 22.952 8.761 31.705 0 8.752-8.753 8.752-22.943 0-31.696-8.753-8.761-22.952-8.761-31.705 0Zm0 0"
          style="fill-rule:nonzero;fill:#ffb13b;fill-opacity:1;stroke-width:38.0086;stroke-linecap:butt;stroke-linejoin:miter;stroke:#000;stroke-opacity:1;stroke-miterlimit:4"
          transform="matrix(.42667 0 0 .42667 64 64)"/>
    <path d="M-84.146-15.848c-8.759-8.759-22.95-8.759-31.702-.006-8.759 8.759-8.759 22.95 0 31.708 8.753 8.753 22.943 8.753 31.702-.006H84.146c8.759 8.759 22.95 8.759 31.702.006 8.759-8.759 8.759-22.95 0-31.708-8.753-8.753-22.943-8.753-31.702.006Zm0 0"
          style="fill-rule:nonzero;fill:#ffb13b;fill-opacity:1;stroke-width:38.0086;stroke-linecap:butt;stroke-linejoin:miter;stroke:#000;stroke-opacity:1;stroke-miterlimit:4"
          transform="matrix(.3017 .3017 -.3017 .3017 64 64)"/>
    <path d="M-84.146-15.848c-8.753-8.761-22.952-8.761-31.705 0-8.752 8.753-8.752 22.943 0 31.696 8.753 8.761 22.952 8.761 31.705 0H84.146c8.753 8.761 22.952 8.761 31.705 0 8.752-8.753 8.752-22.943 0-31.696-8.753-8.761-22.952-8.761-31.705 0Zm0 0"
          style="fill-rule:nonzero;fill:#ffb13b;fill-opacity:1;stroke-width:38.0086;stroke-linecap:butt;stroke-linejoin:miter;stroke:#000;stroke-opacity:1;stroke-miterlimit:4"
          transform="matrix(0 .42667 -.42667 0 64 64)"/>
    <path d="M-84.146-15.848c-8.759-8.759-22.95-8.759-31.702-.006-8.759 8.759-8.759 22.95 0 31.708 8.753 8.753 22.943 8.753 31.702-.006H84.146c8.759 8.759 22.95 8.759 31.702.006 8.759-8.759 8.759-22.95 0-31.708-8.753-8.753-22.943-8.753-31.702.006Zm0 0"
          style="fill-rule:nonzero;fill:#ffb13b;fill-opacity:1;stroke-width:38.0086;stroke-linecap:butt;stroke-linejoin:miter;stroke:#000;stroke-opacity:1;stroke-miterlimit:4"
          transform="matrix(-.3017 .3017 -.3017 -.3017 64 64)"/>
    <path d="M28.098 57.238a9.56 9.56 0 0 0-13.528 0 9.563 9.563 0 0 0 0 13.524 9.56 9.56 0 0 0 13.528 0h71.804a9.56 9.56 0 0 0 13.528 0 9.563 9.563 0 0 0 0-13.524 9.56 9.56 0 0 0-13.528 0Zm0 0"
          style="stroke:none;fill-rule:nonzero;fill:#ffb13b;fill-opacity:1"/>
    <path d="M43.395 33.832c0-5.285-4.282-9.566-9.563-9.566a9.564 9.564 0 0 0-9.566 9.566c0 5.281 4.28 9.563 9.566 9.563l50.773 50.773c0 5.285 4.282 9.566 9.563 9.566a9.564 9.564 0 0 0 9.566-9.566c0-5.281-4.28-9.563-9.566-9.563Zm0 0"
          style="stroke:none;fill-rule:nonzero;fill:#ffb13b;fill-opacity:1"/>
    <path d="M70.762 28.098a9.56 9.56 0 0 0 0-13.528 9.563 9.563 0 0 0-13.524 0 9.56 9.56 0 0 0 0 13.528v71.804a9.56 9.56 0 0 0 0 13.528 9.563 9.563 0 0 0 13.524 0 9.56 9.56 0 0 0 0-13.528Zm0 0"
          style="stroke:none;fill-rule:nonzero;fill:#ffb13b;fill-opacity:1"/>
    <path d="M94.168 43.395c5.285 0 9.566-4.282 9.566-9.563a9.564 9.564 0 0 0-9.566-9.566c-5.281 0-9.563 4.28-9.563 9.566L33.832 84.605c-5.285 0-9.566 4.282-9.566 9.563a9.564 9.564 0 0 0 9.566 9.566c5.281 0 9.563-4.28 9.563-9.566Zm0 0"
          style="stroke:none;fill-rule:nonzero;fill:#ffb13b;fill-opacity:1"/>
    <use xlink:href="#c" mask="url(#d)"/>
    <path d="M21.746 94.14a15.597 15.597 0 0 1-4.586-11.062c0-8.64 7.008-15.644 15.645-15.644 8.64 0 15.648 7.004 15.648 15.644H39.29a6.485 6.485 0 0 0-6.484-6.48 6.482 6.482 0 0 0-4.586 11.058h.004c1.175 1.176 2.152 1.516 4.582 1.903 4.324.449 8.234 1.754 11.062 4.586a15.578 15.578 0 0 1 4.586 11.058c0 8.64-7.008 15.649-15.648 15.649-8.637 0-15.645-7.008-15.645-15.649h9.164a6.485 6.485 0 0 0 6.48 6.484 6.488 6.488 0 0 0 6.485-6.484 6.464 6.464 0 0 0-1.894-4.574h-.004c-1.176-1.176-2.86-1.578-4.586-1.902v-.004c-4.192-.641-8.23-1.75-11.059-4.582ZM79.746 67.434 68.68 120.852h-9.168L48.453 67.434h9.164l6.488 31.285 6.477-31.285ZM95.395 89.559h15.644v15.644h.008c0 8.645-7.012 15.652-15.652 15.652-8.641 0-15.645-7.007-15.645-15.652V83.078h-.004c0-8.64 7.008-15.644 15.649-15.644 8.636 0 15.644 7.004 15.644 15.644h-9.164a6.487 6.487 0 0 0-6.48-6.48 6.484 6.484 0 0 0-6.48 6.48v22.125a6.48 6.48 0 0 0 6.48 6.48 6.483 6.483 0 0 0 6.48-6.476V98.73h-6.48Zm0 0"
          style="stroke:none;fill-rule:nonzero;fill:#fff;fill-opacity:1"/>
</svg>